<?xml version="1.0" encoding="UTF-8" standalone="no"?>
<!-- Generator: Adobe Illustrator 16.0.3, SVG Export Plug-In . SVG Version: 6.00 Build 0)  -->

<svg
   version="1.1"
   x="0px"
   y="0px"
   width="80"
   height="60"
   viewBox="0 0 80 60"
   enable-background="new 0 0 60 44"
   xml:space="preserve"
   id="svg22"
   sodipodi:docname="AtmatLogo.svg"
   inkscape:version="1.1 (c68e22c387, 2021-05-23)"
   xmlns:inkscape="http://www.inkscape.org/namespaces/inkscape"
   xmlns:sodipodi="http://sodipodi.sourceforge.net/DTD/sodipodi-0.dtd"
   xmlns="http://www.w3.org/2000/svg"
   xmlns:svg="http://www.w3.org/2000/svg"
   xmlns:rdf="http://www.w3.org/1999/02/22-rdf-syntax-ns#"
   xmlns:cc="http://creativecommons.org/ns#"
   xmlns:dc="http://purl.org/dc/elements/1.1/"><metadata
   id="metadata28"><rdf:RDF><cc:Work
       rdf:about=""><dc:format>image/svg+xml</dc:format><dc:type
         rdf:resource="http://purl.org/dc/dcmitype/StillImage" /></cc:Work></rdf:RDF></metadata><defs
   id="defs26">
	

		
		
	</defs><sodipodi:namedview
   pagecolor="#5e5e5e"
   bordercolor="#666666"
   borderopacity="1"
   objecttolerance="10"
   gridtolerance="10"
   guidetolerance="10"
   inkscape:pageopacity="0"
   inkscape:pageshadow="2"
   inkscape:window-width="1920"
   inkscape:window-height="1057"
   id="namedview24"
   showgrid="false"
   inkscape:zoom="5.3636365"
   inkscape:cx="10.627118"
   inkscape:cy="25.262711"
   inkscape:window-x="-8"
   inkscape:window-y="-7"
   inkscape:window-maximized="1"
   inkscape:current-layer="svg22"
   inkscape:pagecheckerboard="true" />
<g
   id="Warstwa_2"
   display="none"
   transform="translate(-59.74981,3.5674687)">
	<rect
   x="-495"
   y="-426"
   display="inline"
   fill="#333333"
   width="2809"
   height="1385"
   id="rect2" />
</g>
<g
   id="g963"
   transform="matrix(1.3333333,0,0,1.3333333,-6.6566665e-4,0.66600073)"
   style="stroke-width:0.75"><path
     style="fill:#ef802f;fill-opacity:1;stroke-width:0.75"
     inkscape:connector-curvature="0"
     id="path5"
     d="M 28.841,0.541 15.008,3.71 16.472,22.395 28.841,29.369 V 20.867 L 22.657,17.37 21.848,7.229 28.841,5.612 Z m 2.317,0 v 5.07 l 6.994,1.617 -0.721,10.141 -6.273,3.497 v 8.48 L 43.681,22.395 44.992,3.733 Z" /><g
     id="g17"
     style="fill:#000000;stroke-width:0.75">
			<path
   style="fill:#000000;stroke-width:0.75"
   inkscape:connector-curvature="0"
   id="path7"
   d="m 12.232,35.122 h 9.784 c 0.026,0.005 0.039,0.018 0.039,0.04 v 1.902 c 0,0.026 -0.013,0.039 -0.039,0.039 h -3.547 v 6.318 c 0,0.024 -0.013,0.038 -0.039,0.038 h -2.595 c -0.026,0 -0.039,-0.014 -0.039,-0.038 v -6.318 h -3.563 c -0.026,0 -0.04,-0.013 -0.04,-0.039 v -1.902 c 0.006,-0.027 0.019,-0.04 0.039,-0.04 z" />
			<path
   style="fill:#000000;stroke-width:0.75"
   inkscape:connector-curvature="0"
   id="path9"
   d="m 24.134,35.122 h 2.665 l 3.559,4.126 c 2.351,-2.75 3.532,-4.126 3.542,-4.126 h 2.673 c 0.021,0.005 0.031,0.018 0.031,0.04 v 8.26 c 0,0.024 -0.01,0.038 -0.031,0.038 h -2.596 c -0.025,0 -0.039,-0.014 -0.039,-0.038 V 38.503 L 30.38,42.636 H 30.341 C 30.32,42.631 29.127,41.254 26.759,38.503 v 4.919 c 0,0.024 -0.013,0.038 -0.039,0.038 h -2.587 c -0.026,0 -0.04,-0.014 -0.04,-0.038 v -8.26 c 0.007,-0.027 0.02,-0.04 0.041,-0.04 z" />
			<path
   style="fill:#000000;stroke-width:0.75"
   inkscape:connector-curvature="0"
   id="path11"
   d="m 49.202,35.122 h 9.784 c 0.025,0.005 0.039,0.018 0.039,0.04 v 1.902 c 0,0.026 -0.013,0.039 -0.039,0.039 h -3.547 v 6.318 c 0,0.024 -0.014,0.038 -0.04,0.038 h -2.594 c -0.026,0 -0.04,-0.014 -0.04,-0.038 v -6.318 h -3.563 c -0.026,0 -0.039,-0.013 -0.039,-0.039 v -1.902 c 0.004,-0.027 0.018,-0.04 0.039,-0.04 z" />
			<path
   style="fill:#000000;stroke-width:0.75"
   inkscape:connector-curvature="0"
   id="path13"
   d="M 13.455,43.444 V 43.46 H 10.392 C 10.32,43.385 9.373,41.798 7.559,38.686 7.331,38.317 7.217,38.13 7.209,38.13 6.66,39.061 6.183,39.868 5.776,40.557 H 7.117 L 8.076,42.17 H 4.826 C 4.337,42.991 4.082,43.42 4.055,43.46 H 0.976 v -0.039 c 3.15,-5.349 4.786,-8.119 4.905,-8.299 h 2.65 c 0.051,0.049 0.596,0.956 1.639,2.726 2.099,3.573 3.197,5.433 3.285,5.596 z" />
			<path
   style="fill:#000000;stroke-width:0.75"
   inkscape:connector-curvature="0"
   id="path15"
   d="m 50.423,43.444 v 0.016 h -3.059 c -0.041,-0.039 -0.303,-0.464 -0.788,-1.29 h -3.263 l 0.955,-1.613 h 1.353 c -0.318,-0.546 -0.685,-1.17 -1.094,-1.872 -0.223,-0.369 -0.338,-0.556 -0.35,-0.556 -2.045,3.473 -3.099,5.251 -3.155,5.33 H 37.947 V 43.42 c 3.146,-5.349 4.781,-8.119 4.901,-8.299 h 2.649 c 0.052,0.049 0.597,0.956 1.639,2.726 2.105,3.574 3.199,5.434 3.287,5.597 z" />
		</g></g>
</svg>
