<?xml version="1.0" encoding="UTF-8" standalone="no"?>
<svg
   width="60"
   height="60"
   viewBox="0 0 60 60"
   fill="none"
   version="1.1"
   id="svg29"
   sodipodi:docname="button_pause_pressed_r60.svg"
   inkscape:version="1.1 (c68e22c387, 2021-05-23)"
   inkscape:export-filename="D:\Atmat\Projects\P006_M014_Concrete\m014_scara_concrete_hmi\resources\MySVGs\Stop_pressed.png"
   inkscape:export-xdpi="96"
   inkscape:export-ydpi="96"
   xmlns:inkscape="http://www.inkscape.org/namespaces/inkscape"
   xmlns:sodipodi="http://sodipodi.sourceforge.net/DTD/sodipodi-0.dtd"
   xmlns="http://www.w3.org/2000/svg"
   xmlns:svg="http://www.w3.org/2000/svg">
  <sodipodi:namedview
     id="namedview31"
     pagecolor="#505050"
     bordercolor="#eeeeee"
     borderopacity="1"
     inkscape:pageshadow="0"
     inkscape:pageopacity="0"
     inkscape:pagecheckerboard="0"
     showgrid="false"
     inkscape:zoom="7.8374771"
     inkscape:cx="17.607707"
     inkscape:cy="32.599776"
     inkscape:window-width="1920"
     inkscape:window-height="1027"
     inkscape:window-x="1912"
     inkscape:window-y="-8"
     inkscape:window-maximized="1"
     inkscape:current-layer="svg29"
     width="60px" />
  <defs
     id="defs27">
    <filter
       id="filter0_i"
       x="0.103546"
       y="0.072265603"
       width="64"
       height="64"
       filterUnits="userSpaceOnUse"
       color-interpolation-filters="sRGB">
      <feFlood
         flood-opacity="0"
         result="BackgroundImageFix"
         id="feFlood8" />
      <feBlend
         mode="normal"
         in="SourceGraphic"
         in2="BackgroundImageFix"
         result="shape"
         id="feBlend10" />
      <feColorMatrix
         in="SourceAlpha"
         type="matrix"
         values="0 0 0 0 0 0 0 0 0 0 0 0 0 0 0 0 0 0 127 0"
         result="hardAlpha"
         id="feColorMatrix12" />
      <feMorphology
         radius="2"
         operator="erode"
         in="SourceAlpha"
         result="effect1_innerShadow"
         id="feMorphology14" />
      <feOffset
         dx="4"
         dy="4"
         id="feOffset16" />
      <feGaussianBlur
         stdDeviation="0.01266654"
         id="feGaussianBlur18" />
      <feComposite
         in2="hardAlpha"
         operator="arithmetic"
         k2="-1"
         k3="1"
         id="feComposite20"
         k1="0"
         k4="0" />
      <feColorMatrix
         type="matrix"
         values="0 0 0 0 0 0 0 0 0 0 0 0 0 0 0 0 0 0 0.4 0"
         id="feColorMatrix22" />
      <feBlend
         mode="normal"
         in2="shape"
         result="effect1_innerShadow"
         id="feBlend24" />
    </filter>
  </defs>
  <circle
     style="opacity:1;fill:#fa8229;fill-opacity:1;fill-rule:nonzero;stroke-width:1"
     id="circle1491"
     cx="30"
     cy="30"
     r="30" />
  <path
     id="rect6727"
     style="fill:#ffffff;fill-opacity:1;stroke-width:0.999999"
     d="M 16.5 16.5 L 16.5 43.5 L 25.5 43.5 L 25.5 16.5 L 16.5 16.5 z M 34.5 16.5 L 34.5 43.5 L 43.5 43.5 L 43.5 16.5 L 34.5 16.5 z " />
  <path
     id="circle2108"
     style="opacity:1;fill:#7d4114;fill-opacity:1;fill-rule:nonzero;stroke-width:1"
     d="M 30 0 A 30 30 0 0 0 0 30 A 30 30 0 0 0 30 60 A 30 30 0 0 0 60 30 A 30 30 0 0 0 30 0 z M 30 6 A 24 24 0 0 1 54 30 A 24 24 0 0 1 30 54 A 24 24 0 0 1 6 30 A 24 24 0 0 1 30 6 z " />
</svg>
