<?xml version="1.0" encoding="UTF-8" standalone="no"?>
<svg
   width="60"
   height="60"
   viewBox="0 0 60 60"
   fill="none"
   version="1.1"
   id="svg29"
   sodipodi:docname="button_unlock_r60_pressed.svg"
   inkscape:version="1.1 (c68e22c387, 2021-05-23)"
   inkscape:export-filename="D:\Atmat\Projects\P006_M014_Concrete\m014_scara_concrete_hmi\resources\MySVGs\Stop_pressed.png"
   inkscape:export-xdpi="96"
   inkscape:export-ydpi="96"
   xmlns:inkscape="http://www.inkscape.org/namespaces/inkscape"
   xmlns:sodipodi="http://sodipodi.sourceforge.net/DTD/sodipodi-0.dtd"
   xmlns="http://www.w3.org/2000/svg"
   xmlns:svg="http://www.w3.org/2000/svg">
  <sodipodi:namedview
     id="namedview31"
     pagecolor="#505050"
     bordercolor="#eeeeee"
     borderopacity="1"
     inkscape:pageshadow="0"
     inkscape:pageopacity="0"
     inkscape:pagecheckerboard="0"
     showgrid="false"
     inkscape:zoom="4"
     inkscape:cx="-12.5"
     inkscape:cy="5.375"
     inkscape:window-width="1920"
     inkscape:window-height="1027"
     inkscape:window-x="1912"
     inkscape:window-y="-8"
     inkscape:window-maximized="1"
     inkscape:current-layer="svg29"
     width="60px"
     inkscape:snap-bbox="true"
     inkscape:bbox-paths="true"
     inkscape:bbox-nodes="true"
     inkscape:snap-bbox-edge-midpoints="true"
     inkscape:snap-bbox-midpoints="true"
     inkscape:object-paths="true"
     inkscape:snap-intersection-paths="true"
     inkscape:snap-smooth-nodes="true"
     inkscape:snap-midpoints="true"
     inkscape:snap-object-midpoints="true"
     inkscape:snap-center="true"
     inkscape:snap-text-baseline="true"
     inkscape:snap-page="true"
     showguides="true"
     inkscape:guide-bbox="true" />
  <defs
     id="defs27">
    <filter
       id="filter0_i"
       x="0.103546"
       y="0.072265603"
       width="64"
       height="64"
       filterUnits="userSpaceOnUse"
       color-interpolation-filters="sRGB">
      <feFlood
         flood-opacity="0"
         result="BackgroundImageFix"
         id="feFlood8" />
      <feBlend
         mode="normal"
         in="SourceGraphic"
         in2="BackgroundImageFix"
         result="shape"
         id="feBlend10" />
      <feColorMatrix
         in="SourceAlpha"
         type="matrix"
         values="0 0 0 0 0 0 0 0 0 0 0 0 0 0 0 0 0 0 127 0"
         result="hardAlpha"
         id="feColorMatrix12" />
      <feMorphology
         radius="2"
         operator="erode"
         in="SourceAlpha"
         result="effect1_innerShadow"
         id="feMorphology14" />
      <feOffset
         dx="4"
         dy="4"
         id="feOffset16" />
      <feGaussianBlur
         stdDeviation="0.01266654"
         id="feGaussianBlur18" />
      <feComposite
         in2="hardAlpha"
         operator="arithmetic"
         k2="-1"
         k3="1"
         id="feComposite20"
         k1="0"
         k4="0" />
      <feColorMatrix
         type="matrix"
         values="0 0 0 0 0 0 0 0 0 0 0 0 0 0 0 0 0 0 0.4 0"
         id="feColorMatrix22" />
      <feBlend
         mode="normal"
         in2="shape"
         result="effect1_innerShadow"
         id="feBlend24" />
    </filter>
  </defs>
  <circle
     style="fill:#fa8229;fill-opacity:1;fill-rule:nonzero;stroke-width:1"
     id="circle1491"
     cx="30"
     cy="30"
     r="30" />
  <g
     inkscape:label="Warstwa 1"
     id="layer1"
     transform="matrix(2.7777901,0,0,2.7777901,-1696.5412,-247.66565)"
     style="fill:#ffffff;stroke-width:1.36062">
    <path
       id="rect1920"
       style="fill:#ffffff;fill-opacity:1;stroke:none;stroke-width:0.359998;stroke-linecap:round;stroke-linejoin:round;stroke-miterlimit:4;stroke-dasharray:none"
       d="m 617.05209,99.95917 v 5.00021 h 8.99996 v -5.00021 z m 4.49998,0.74982 a 1,1 0 0 1 0.99994,1.00046 1,1 0 0 1 -0.53898,0.88212 l 0.53898,1.61747 h -1.99988 l 0.53899,-1.61747 a 1,1 0 0 1 -0.53899,-0.88212 1,1 0 0 1 0.99994,-1.00046 z" />
    <path
       id="path2042"
       style="fill:#ffffff;fill-opacity:1;stroke:none;stroke-width:0.359998;stroke-linecap:round;stroke-linejoin:round;stroke-miterlimit:4;stroke-dasharray:none"
       d="m 621.55036,94.575934 a 3.5,3.5 0 0 0 -3.49488,3.383256 h 1.00046 a 2.5,2.5 0 0 1 2.49442,-2.383316 2.5,2.5 0 0 1 2.497,2.383316 h 1.00098 a 3.5,3.5 0 0 0 -3.49798,-3.383256 z" />
    <rect
       style="fill:#ffffff;fill-opacity:1;stroke:none;stroke-width:0.359998;stroke-linecap:round;stroke-linejoin:round;stroke-miterlimit:4;stroke-dasharray:none"
       id="rect2274"
       width="1"
       height="2"
       x="624.04834"
       y="97.95919" />
  </g>
  <path
     id="circle2108"
     style="fill:#7d4114;fill-opacity:1;fill-rule:nonzero;stroke-width:1"
     d="M 30.000005,-4.8e-7 A 30,30 0 0 0 6e-6,30 30,30 0 0 0 30.000005,60 30,30 0 0 0 60,30 30,30 0 0 0 30.000005,-4.8e-7 Z m 0,5.99999998 a 24,24 0 0 1 24,24.0000005 24,24 0 0 1 -24,24 A 24,24 0 0 1 6.000006,30 24,24 0 0 1 30.000005,5.9999995 Z" />
</svg>
