<?xml version="1.0" encoding="UTF-8" standalone="no"?>
<!-- Created with Inkscape (http://www.inkscape.org/) -->

<svg
   width="60"
   height="60"
   viewBox="0 0 15.875 15.875001"
   version="1.1"
   id="svg5"
   inkscape:version="1.1 (c68e22c387, 2021-05-23)"
   sodipodi:docname="button_manual_r60_pressed.svg"
   xmlns:inkscape="http://www.inkscape.org/namespaces/inkscape"
   xmlns:sodipodi="http://sodipodi.sourceforge.net/DTD/sodipodi-0.dtd"
   xmlns="http://www.w3.org/2000/svg"
   xmlns:svg="http://www.w3.org/2000/svg">
  <sodipodi:namedview
     id="namedview7"
     pagecolor="#505050"
     bordercolor="#eeeeee"
     borderopacity="1"
     inkscape:pageshadow="0"
     inkscape:pageopacity="0"
     inkscape:pagecheckerboard="0"
     inkscape:document-units="px"
     showgrid="false"
     units="px"
     width="1980px"
     inkscape:zoom="2.1215981"
     inkscape:cx="-58.682179"
     inkscape:cy="30.872954"
     inkscape:window-width="1920"
     inkscape:window-height="1057"
     inkscape:window-x="-8"
     inkscape:window-y="-7"
     inkscape:window-maximized="1"
     inkscape:current-layer="layer1"
     inkscape:snap-bbox="true"
     inkscape:bbox-paths="true"
     inkscape:bbox-nodes="true"
     inkscape:snap-bbox-edge-midpoints="true"
     inkscape:snap-bbox-midpoints="true"
     inkscape:object-paths="true"
     inkscape:snap-intersection-paths="true"
     inkscape:snap-smooth-nodes="true"
     inkscape:snap-midpoints="true"
     inkscape:snap-object-midpoints="true"
     inkscape:snap-center="true"
     inkscape:snap-text-baseline="true"
     inkscape:snap-page="true" />
  <defs
     id="defs2">
    <filter
       id="filter0_i"
       x="0.103546"
       y="0.072265603"
       width="64"
       height="64"
       filterUnits="userSpaceOnUse"
       color-interpolation-filters="sRGB">
      <feFlood
         flood-opacity="0"
         result="BackgroundImageFix"
         id="feFlood8" />
      <feBlend
         mode="normal"
         in="SourceGraphic"
         in2="BackgroundImageFix"
         result="shape"
         id="feBlend10" />
      <feColorMatrix
         in="SourceAlpha"
         type="matrix"
         values="0 0 0 0 0 0 0 0 0 0 0 0 0 0 0 0 0 0 127 0"
         result="hardAlpha"
         id="feColorMatrix12" />
      <feMorphology
         radius="2"
         operator="erode"
         in="SourceAlpha"
         result="effect1_innerShadow"
         id="feMorphology14" />
      <feOffset
         dx="4"
         dy="4"
         id="feOffset16" />
      <feGaussianBlur
         stdDeviation="0.01266654"
         id="feGaussianBlur18" />
      <feComposite
         in2="hardAlpha"
         operator="arithmetic"
         k2="-1"
         k3="1"
         id="feComposite20"
         k1="0"
         k4="0" />
      <feColorMatrix
         type="matrix"
         values="0 0 0 0 0 0 0 0 0 0 0 0 0 0 0 0 0 0 0.4 0"
         id="feColorMatrix22" />
      <feBlend
         mode="normal"
         in2="shape"
         result="effect1_innerShadow"
         id="feBlend24" />
    </filter>
  </defs>
  <g
     inkscape:label="Warstwa 1"
     inkscape:groupmode="layer"
     id="layer1"
     transform="translate(-201.57438,-105.79752)">
    <circle
       style="fill:#fa8229;fill-opacity:1;fill-rule:nonzero;stroke-width:0.264583"
       id="circle1491"
       cx="209.51189"
       cy="113.73502"
       r="7.9375" />
    <path
       id="circle2108"
       style="fill:#7d4114;fill-opacity:1;fill-rule:nonzero;stroke-width:0.264583"
       d="m 209.51188,105.79752 a 7.9375002,7.9375002 0 0 0 -7.9375,7.9375 7.9375002,7.9375002 0 0 0 7.9375,7.9375 7.9375002,7.9375002 0 0 0 7.9375,-7.9375 7.9375002,7.9375002 0 0 0 -7.9375,-7.9375 z m 0,1.5875 a 6.3500002,6.3500002 0 0 1 6.35,6.35 6.3500002,6.3500002 0 0 1 -6.35,6.35 6.3500002,6.3500002 0 0 1 -6.35,-6.35 6.3500002,6.3500002 0 0 1 6.35,-6.35 z" />
    <path
       id="rect6890"
       style="fill:#ffffff;stroke-width:2.64583;stroke-dasharray:7.9375, 2.64583"
       d="m 208.49444,109.24336 c -0.68939,0 -1.23507,0.56173 -1.23507,1.23817 v 2.45566 c -0.50588,-0.46417 -1.39367,-0.51831 -1.8526,-0.009 -0.42847,0.47521 -0.42129,1.19398 0,1.66036 l 1.69964,2.36162 c 0.009,0.0272 0.0172,0.0481 0.0222,0.0599 0.0129,0.0238 0.0339,0.0606 0.0429,0.0739 0.006,0.009 0.0156,0.0229 0.0196,0.0289 0.008,0.0118 0.0156,0.0208 0.0186,0.0248 0.004,0.005 0.007,0.009 0.009,0.0114 0.004,0.005 0.007,0.009 0.009,0.0109 l 0.008,0.009 c 0.009,0.0104 0.0242,0.0285 0.0377,0.0444 l 0.11421,0.13435 0.0398,0.0465 0.0357,0.0486 0.0538,0.0496 c 0.42294,0.4615 0.95778,0.62978 1.38027,0.69298 0.3346,0.0501 0.69164,0.0427 0.89246,0.0377 0.0437,-0.001 0.0799,-0.002 0.10697,-0.002 h 1.40198 c 1.46365,0 2.63705,-1.19505 2.63705,-2.65256 v -2.56831 c 0,-0.67645 -0.54567,-1.23817 -1.23507,-1.23817 -0.16204,0 -0.3164,0.0311 -0.45734,0.0873 -0.22534,-0.26862 -0.56285,-0.4408 -0.94464,-0.4408 -0.26169,0 -0.50296,0.0807 -0.70125,0.21808 -0.19827,-0.13746 -0.43905,-0.21808 -0.70073,-0.21808 -0.0567,0 -0.11242,0.004 -0.16692,0.0114 v -0.93844 c 0,-0.67644 -0.54568,-1.23817 -1.23506,-1.23817 z m 0,0.8847 c 0.19355,0 0.35036,0.15819 0.35036,0.35347 v 3.22874 c 0,0.0894 0.0338,0.17116 0.0889,0.23306 0.0265,0.0298 0.0578,0.0551 0.093,0.0744 0.0501,0.0276 0.10778,0.0434 0.16899,0.0434 0.12281,0 0.23092,-0.0636 0.29352,-0.15916 0.036,-0.0551 0.0568,-0.1204 0.0568,-0.1912 v -1.06402 c 0,-0.13432 0.0741,-0.25129 0.18345,-0.31109 0.0496,-0.0271 0.10642,-0.0424 0.16692,-0.0424 0.0748,0 0.14412,0.0233 0.20102,0.0636 0.0903,0.064 0.14934,0.1701 0.14934,0.28991 v 0.71003 c 0,0.13315 0.0746,0.24921 0.18397,0.30851 0.0496,0.0269 0.1059,0.0419 0.1664,0.0419 0.0746,0 0.14422,-0.0228 0.20102,-0.0625 0.0906,-0.0634 0.14986,-0.16885 0.14986,-0.28784 v -0.71003 c 0,-0.11981 0.059,-0.22591 0.14935,-0.28991 0.0569,-0.0403 0.12622,-0.0636 0.20102,-0.0636 0.12298,0 0.23092,0.0635 0.29352,0.1602 0.036,0.0555 0.0568,0.12207 0.0568,0.19327 v 0.71003 c 0,0.11899 0.0593,0.22454 0.14987,0.28784 0.0568,0.0397 0.1259,0.0625 0.2005,0.0625 0.0604,0 0.11732,-0.015 0.16692,-0.0419 0.0977,-0.053 0.16768,-0.1514 0.18138,-0.26665 0.001,-0.0137 0.002,-0.0277 0.002,-0.0419 v -0.35656 c 0,-0.0149 -5e-5,-0.0295 0.002,-0.0439 0.0142,-0.11556 0.0837,-0.21397 0.18087,-0.26717 0.0496,-0.0271 0.10652,-0.0424 0.16692,-0.0424 0.19357,0 0.35036,0.1582 0.35036,0.35347 v 2.56831 c 0,0.97635 -0.78451,1.76786 -1.75234,1.76786 h -1.40199 c -0.051,0 -0.10656,10e-4 -0.16536,0.002 -0.26774,0.005 -0.6063,0.0119 -0.92708,-0.0744 -0.13103,-0.0353 -0.25929,-0.0865 -0.37827,-0.15916 -0.10186,-0.0622 -0.19683,-0.14035 -0.28164,-0.23875 -0.005,-0.005 -0.009,-0.011 -0.0139,-0.016 l -5.1e-4,-5.2e-4 c -0.008,-0.009 -0.0158,-0.0178 -0.0227,-0.0258 l 0.0196,0.0269 c -0.008,-0.0101 -0.0651,-0.0771 -0.11783,-0.13901 -0.099,-0.11612 -0.18314,-0.2148 0.0982,0.11162 l -2.01797,-2.80396 c -0.002,-0.001 -0.003,-0.002 -0.005,-0.004 -0.13895,-0.13192 -0.14748,-0.35267 -0.0186,-0.49558 0.13023,-0.1444 0.35187,-0.15464 0.49506,-0.0233 l 0.84336,0.77256 c 0.20975,0.19247 0.51477,0.13225 0.65939,-0.0677 0.051,-0.0704 0.0822,-0.15814 0.0822,-0.25838 v -3.4618 c 0,-0.19528 0.15679,-0.35347 0.35037,-0.35347 z" />
  </g>
</svg>
