<?xml version="1.0" encoding="UTF-8" standalone="no"?>
<svg
   width="60"
   height="60"
   viewBox="0 0 60 60"
   fill="none"
   version="1.1"
   id="svg29"
   sodipodi:docname="button_settings_r60_pressed.svg"
   inkscape:version="1.1 (c68e22c387, 2021-05-23)"
   inkscape:export-filename="D:\Atmat\Projects\P006_M014_Concrete\m014_scara_concrete_hmi\resources\MySVGs\Stop_pressed.png"
   inkscape:export-xdpi="96"
   inkscape:export-ydpi="96"
   xmlns:inkscape="http://www.inkscape.org/namespaces/inkscape"
   xmlns:sodipodi="http://sodipodi.sourceforge.net/DTD/sodipodi-0.dtd"
   xmlns="http://www.w3.org/2000/svg"
   xmlns:svg="http://www.w3.org/2000/svg">
  <sodipodi:namedview
     id="namedview31"
     pagecolor="#505050"
     bordercolor="#eeeeee"
     borderopacity="1"
     inkscape:pageshadow="0"
     inkscape:pageopacity="0"
     inkscape:pagecheckerboard="0"
     showgrid="false"
     inkscape:zoom="4"
     inkscape:cx="69.75"
     inkscape:cy="22.875"
     inkscape:window-width="1920"
     inkscape:window-height="1027"
     inkscape:window-x="1912"
     inkscape:window-y="-8"
     inkscape:window-maximized="1"
     inkscape:current-layer="svg29"
     width="60px"
     inkscape:snap-bbox="true"
     inkscape:bbox-paths="true"
     inkscape:bbox-nodes="true"
     inkscape:snap-bbox-edge-midpoints="true"
     inkscape:snap-bbox-midpoints="true"
     inkscape:object-paths="true"
     inkscape:snap-intersection-paths="true"
     inkscape:snap-smooth-nodes="true"
     inkscape:snap-midpoints="true"
     inkscape:snap-object-midpoints="true"
     inkscape:snap-center="true"
     inkscape:snap-text-baseline="true"
     inkscape:snap-page="true"
     showguides="true"
     inkscape:guide-bbox="true" />
  <defs
     id="defs27">
    <filter
       id="filter0_i"
       x="0.103546"
       y="0.072265603"
       width="64"
       height="64"
       filterUnits="userSpaceOnUse"
       color-interpolation-filters="sRGB">
      <feFlood
         flood-opacity="0"
         result="BackgroundImageFix"
         id="feFlood8" />
      <feBlend
         mode="normal"
         in="SourceGraphic"
         in2="BackgroundImageFix"
         result="shape"
         id="feBlend10" />
      <feColorMatrix
         in="SourceAlpha"
         type="matrix"
         values="0 0 0 0 0 0 0 0 0 0 0 0 0 0 0 0 0 0 127 0"
         result="hardAlpha"
         id="feColorMatrix12" />
      <feMorphology
         radius="2"
         operator="erode"
         in="SourceAlpha"
         result="effect1_innerShadow"
         id="feMorphology14" />
      <feOffset
         dx="4"
         dy="4"
         id="feOffset16" />
      <feGaussianBlur
         stdDeviation="0.01266654"
         id="feGaussianBlur18" />
      <feComposite
         in2="hardAlpha"
         operator="arithmetic"
         k2="-1"
         k3="1"
         id="feComposite20"
         k1="0"
         k4="0" />
      <feColorMatrix
         type="matrix"
         values="0 0 0 0 0 0 0 0 0 0 0 0 0 0 0 0 0 0 0.4 0"
         id="feColorMatrix22" />
      <feBlend
         mode="normal"
         in2="shape"
         result="effect1_innerShadow"
         id="feBlend24" />
    </filter>
  </defs>
  <g
     id="g5403"
     transform="translate(-232,113)">
    <circle
       style="opacity:1;fill:#fa8229;fill-opacity:1;fill-rule:nonzero;stroke-width:1"
       id="circle1491"
       cx="262"
       cy="-83"
       r="30" />
    <path
       id="circle2108"
       style="opacity:1;fill:#7d4114;fill-opacity:1;fill-rule:nonzero;stroke-width:1"
       d="m 262,-113 a 30,30 0 0 0 -30,30 30,30 0 0 0 30,30 30,30 0 0 0 30,-30 30,30 0 0 0 -30,-30 z m 0,6 a 24,24 0 0 1 24,24 24,24 0 0 1 -24,24 24,24 0 0 1 -24,-24 24,24 0 0 1 24,-24 z" />
    <path
       id="rect1199"
       style="fill:#ffffff;stroke-width:1;stroke-linecap:round;stroke-linejoin:round;stroke-dasharray:1, 3"
       d="m 258.49609,-102.69141 v 0.0391 L 254.5,-83 l 3.99609,19.652344 v 0.03906 h 0.008 6.99218 L 269.5,-83 l -4.00391,-19.69141 h -6.99218 z" />
    <circle
       style="fill:#ffffff;stroke-width:1;stroke-linecap:round;stroke-linejoin:round;stroke-dasharray:1, 3"
       id="path1351"
       cx="262"
       cy="-83"
       r="15" />
    <path
       id="path4998"
       style="fill:#ffffff;stroke-width:1;stroke-linecap:round;stroke-linejoin:round;stroke-dasharray:1, 3"
       d="m 277.30131,-95.880175 -0.0338,0.01953 -19.01748,6.365454 -15.02138,13.286891 -0.0338,0.01953 0.004,0.0068 3.49609,6.055412 19.05522,-6.378251 15.05131,-13.313188 -3.4961,-6.055412 z" />
    <path
       id="path5000"
       style="fill:#ffffff;stroke-width:1;stroke-linecap:round;stroke-linejoin:round;stroke-dasharray:1, 3"
       d="m 280.80132,-76.18876 -0.0338,-0.01953 -15.02138,-13.286889 -19.01748,-6.365453 -0.0338,-0.01953 -0.004,0.0068 -3.49609,6.055412 15.05133,13.313177 19.05521,6.378219 3.4961,-6.055412 z" />
    <circle
       style="fill:#fa8229;fill-opacity:1;stroke-width:0.999997;stroke-linecap:round;stroke-linejoin:round;stroke-dasharray:0.999997, 3"
       id="path1455"
       cx="262"
       cy="-83"
       r="8.5" />
  </g>
</svg>
