<?xml version="1.0" encoding="UTF-8" standalone="no"?>
<!-- Created with Inkscape (http://www.inkscape.org/) -->

<svg
   width="80.000008"
   height="80.000008"
   viewBox="0 0 21.166668 21.166669"
   version="1.1"
   id="svg5"
   inkscape:version="1.1 (c68e22c387, 2021-05-23)"
   sodipodi:docname="error_r80.svg"
   xmlns:inkscape="http://www.inkscape.org/namespaces/inkscape"
   xmlns:sodipodi="http://sodipodi.sourceforge.net/DTD/sodipodi-0.dtd"
   xmlns="http://www.w3.org/2000/svg"
   xmlns:svg="http://www.w3.org/2000/svg">
  <sodipodi:namedview
     id="namedview7"
     pagecolor="#505050"
     bordercolor="#eeeeee"
     borderopacity="1"
     inkscape:pageshadow="0"
     inkscape:pageopacity="0"
     inkscape:pagecheckerboard="0"
     inkscape:document-units="px"
     showgrid="false"
     units="px"
     width="1980px"
     inkscape:zoom="2.1215981"
     inkscape:cx="68.109036"
     inkscape:cy="27.573554"
     inkscape:window-width="1920"
     inkscape:window-height="1027"
     inkscape:window-x="1912"
     inkscape:window-y="-8"
     inkscape:window-maximized="1"
     inkscape:current-layer="layer1"
     inkscape:snap-bbox="true"
     inkscape:bbox-paths="true"
     inkscape:bbox-nodes="true"
     inkscape:snap-bbox-edge-midpoints="true"
     inkscape:snap-bbox-midpoints="true"
     inkscape:object-paths="true"
     inkscape:snap-intersection-paths="true"
     inkscape:snap-smooth-nodes="true"
     inkscape:snap-midpoints="true"
     inkscape:snap-object-midpoints="true"
     inkscape:snap-center="true"
     inkscape:snap-text-baseline="true"
     inkscape:snap-page="true" />
  <defs
     id="defs2">
    <rect
       x="-57.03248"
       y="-3.5350711"
       width="24.745498"
       height="71.408436"
       id="rect4100" />
  </defs>
  <g
     inkscape:label="Warstwa 1"
     inkscape:groupmode="layer"
     id="layer1"
     transform="translate(-52.876806,-45.89308)">
    <circle
       style="fill:#d82828;fill-opacity:1;stroke-width:0.264583;stroke-linecap:round;stroke-linejoin:round;stroke-dasharray:0.264583, 0.793752"
       id="path843"
       cx="63.46014"
       cy="56.476414"
       r="10.583334" />
    <g
       aria-label="!"
       transform="matrix(0.54366438,0,0,0.54366438,90.547241,45.959312)"
       id="text4098"
       style="font-size:40px;line-height:1.25;font-family:Lato;-inkscape-font-specification:Lato;white-space:pre;shape-inside:url(#rect4100);fill:#ffffff;stroke-width:0.486667">
      <path
         d="M -47.433203,4.7448438 V 16.184844 q 0,1.82 -0.18,3.58 -0.18,1.74 -0.48,3.7 h -3.34 q -0.3,-1.96 -0.48,-3.7 -0.18,-1.76 -0.18,-3.58 V 4.7448438 Z m -5.42,26.2000002 q 0,-0.62 0.22,-1.18 0.24,-0.56 0.64,-0.96 0.42,-0.4 0.98,-0.64 0.56,-0.24 1.2,-0.24 0.62,0 1.18,0.24 0.56,0.24 0.96,0.64 0.4,0.4 0.64,0.96 0.24,0.56 0.24,1.18 0,0.64 -0.24,1.2 -0.24,0.54 -0.64,0.94 -0.4,0.4 -0.96,0.62 -0.56,0.24 -1.18,0.24 -0.64,0 -1.2,-0.24 -0.56,-0.22 -0.98,-0.62 -0.4,-0.4 -0.64,-0.94 -0.22,-0.56 -0.22,-1.2 z"
         style="font-weight:bold;-inkscape-font-specification:'Lato Bold'"
         id="path10582" />
    </g>
  </g>
</svg>
