<?xml version="1.0" encoding="UTF-8" standalone="no"?>
<svg
   width="30.000002"
   height="30"
   viewBox="0 0 30.000002 30"
   fill="none"
   version="1.1"
   id="svg6"
   sodipodi:docname="error_30.svg"
   inkscape:version="1.1 (c68e22c387, 2021-05-23)"
   xmlns:inkscape="http://www.inkscape.org/namespaces/inkscape"
   xmlns:sodipodi="http://sodipodi.sourceforge.net/DTD/sodipodi-0.dtd"
   xmlns="http://www.w3.org/2000/svg"
   xmlns:svg="http://www.w3.org/2000/svg">
  <defs
     id="defs10" />
  <sodipodi:namedview
     id="namedview8"
     pagecolor="#505050"
     bordercolor="#eeeeee"
     borderopacity="1"
     inkscape:pageshadow="0"
     inkscape:pageopacity="0"
     inkscape:pagecheckerboard="0"
     showgrid="false"
     height="30px"
     inkscape:zoom="13.580645"
     inkscape:cx="8.4679335"
     inkscape:cy="19.476247"
     inkscape:window-width="1920"
     inkscape:window-height="1027"
     inkscape:window-x="1912"
     inkscape:window-y="-8"
     inkscape:window-maximized="1"
     inkscape:current-layer="svg6" />
  <path
     d="M 14.995374,29.999993 C 11.017274,30.003594 7.2010541,28.4245 4.3880941,25.610799 1.5751441,22.797098 -0.00357293,18.979947 6.0720165e-6,15.000855 V 14.70088 C 0.12265007,8.6895625 3.8205241,3.3317871 9.3966541,1.0862774 14.972774,-1.1592332 21.350574,0.14108082 25.603074,4.390491 c 4.2924,4.2898692 5.5771,10.744397 3.2545,16.351495 -2.3225,5.607097 -7.7944,9.261508 -13.8622,9.258007 z m 0,-12.884211 3.8838,3.884768 2.1144,-2.114927 -3.8838,-3.884768 3.8838,-3.884768 -2.1144,-2.1148669 -3.8838,3.8848079 -3.8838,-3.8848079 -2.1143399,2.1148669 3.8838399,3.884768 -3.8838399,3.884768 2.1143399,2.114927 3.8838,-3.883268 z"
     fill="#d82828"
     id="path2"
     style="stroke-width:1" />
  <path
     d="m 14.999961,17.110606 3.8838,3.8838 2.1144,-2.1143 -3.8838,-3.8838 3.8838,-3.8838 -2.1144,-2.1143898 -3.8838,3.8837898 -3.8838,-3.8837898 -2.1143201,2.1143898 3.8838201,3.8838 -3.8838201,3.8838 2.1143201,2.1143 3.8838,-3.8823 z"
     fill="#ffffff"
     id="path4" />
</svg>
