<?xml version="1.0" encoding="UTF-8" standalone="no"?>
<!-- Created with Inkscape (http://www.inkscape.org/) -->

<svg
   width="30"
   height="30"
   viewBox="0 0 7.9374998 7.9375003"
   version="1.1"
   id="svg5"
   inkscape:version="1.1 (c68e22c387, 2021-05-23)"
   sodipodi:docname="lamp_r30_on.svg"
   xmlns:inkscape="http://www.inkscape.org/namespaces/inkscape"
   xmlns:sodipodi="http://sodipodi.sourceforge.net/DTD/sodipodi-0.dtd"
   xmlns="http://www.w3.org/2000/svg"
   xmlns:svg="http://www.w3.org/2000/svg">
  <sodipodi:namedview
     id="namedview7"
     pagecolor="#505050"
     bordercolor="#eeeeee"
     borderopacity="1"
     inkscape:pageshadow="0"
     inkscape:pageopacity="0"
     inkscape:pagecheckerboard="0"
     inkscape:document-units="px"
     showgrid="false"
     units="px"
     width="1980px"
     inkscape:zoom="2.7973568"
     inkscape:cx="33.24567"
     inkscape:cy="19.482678"
     inkscape:window-width="1920"
     inkscape:window-height="1057"
     inkscape:window-x="-8"
     inkscape:window-y="-7"
     inkscape:window-maximized="1"
     inkscape:current-layer="layer1" />
  <defs
     id="defs2" />
  <g
     inkscape:label="Warstwa 1"
     inkscape:groupmode="layer"
     id="layer1"
     transform="translate(-122.71396,-57.865202)">
    <path
       id="path985"
       style="fill:#ffffff;fill-opacity:1;stroke-width:0.264582;stroke-linecap:round;stroke-linejoin:round;stroke-dasharray:0.264582, 0.79375"
       d="m 126.68271,57.865202 c -2.19188,0 -3.96875,1.77687 -3.96875,3.96875 0,2.19188 1.77687,3.96875 3.96875,3.96875 2.19188,0 3.96875,-1.77687 3.96875,-3.96875 0,-2.19188 -1.77687,-3.96875 -3.96875,-3.96875 z"
       sodipodi:nodetypes="sssss" />
    <path
       id="path843"
       style="fill:#fa8229;fill-opacity:1;stroke-width:0.999995;stroke-linecap:round;stroke-linejoin:round;stroke-dasharray:0.999995, 3"
       d="m 478.80078,218.70312 a 15.000001,15.000001 0 0 0 -15,15 15.000001,15.000001 0 0 0 15,15 15.000001,15.000001 0 0 0 15,-15 15.000001,15.000001 0 0 0 -15,-15 z m 0,3 a 12,12 0 0 1 12,12 12,12 0 0 1 -12,12 12,12 0 0 1 -12,-12 12,12 0 0 1 12,-12 z"
       transform="scale(0.26458334)" />
  </g>
</svg>
