<?xml version="1.0" encoding="UTF-8" standalone="no"?>
<svg
   width="60"
   height="30"
   viewBox="0 0 60 30"
   fill="none"
   version="1.1"
   id="svg6"
   sodipodi:docname="toggle_off_60x30.svg"
   inkscape:version="1.1 (c68e22c387, 2021-05-23)"
   xmlns:inkscape="http://www.inkscape.org/namespaces/inkscape"
   xmlns:sodipodi="http://sodipodi.sourceforge.net/DTD/sodipodi-0.dtd"
   xmlns="http://www.w3.org/2000/svg"
   xmlns:svg="http://www.w3.org/2000/svg">
  <defs
     id="defs10" />
  <sodipodi:namedview
     id="namedview8"
     pagecolor="#505050"
     bordercolor="#eeeeee"
     borderopacity="1"
     inkscape:pageshadow="0"
     inkscape:pageopacity="0"
     inkscape:pagecheckerboard="0"
     showgrid="false"
     inkscape:snap-bbox="true"
     inkscape:bbox-paths="true"
     inkscape:bbox-nodes="true"
     inkscape:snap-bbox-edge-midpoints="true"
     inkscape:snap-bbox-midpoints="true"
     inkscape:object-paths="true"
     inkscape:snap-intersection-paths="true"
     inkscape:snap-smooth-nodes="true"
     inkscape:snap-midpoints="true"
     inkscape:snap-object-midpoints="true"
     inkscape:snap-center="true"
     inkscape:snap-text-baseline="true"
     inkscape:snap-page="true"
     showguides="true"
     inkscape:guide-bbox="true"
     inkscape:zoom="6.75"
     inkscape:cx="22.962963"
     inkscape:cy="15.62963"
     inkscape:window-width="1920"
     inkscape:window-height="1027"
     inkscape:window-x="1912"
     inkscape:window-y="-8"
     inkscape:window-maximized="1"
     inkscape:current-layer="svg6" />
  <path
     id="circle1059"
     style="fill:#fa8229;fill-opacity:1;stroke-width:1;stroke-linecap:round;stroke-linejoin:round;stroke-dasharray:1, 3"
     d="M 15 0 A 14.999999 14.999999 0 0 0 0 15 A 14.999999 14.999999 0 0 0 15 30 L 45 30 A 14.999999 14.999999 0 0 0 60 15 A 14.999999 14.999999 0 0 0 45 0 L 15 0 z M 15 1.9882812 L 44.935547 1.9882812 L 44.935547 2.0527344 A 12.999999 12.999999 0 0 1 45 1.9882812 A 12.999999 12.999999 0 0 1 58 14.988281 A 12.999999 12.999999 0 0 1 45 27.988281 A 12.999999 12.999999 0 0 1 44.935547 27.923828 L 44.935547 27.988281 L 15 27.988281 A 12.999999 12.999999 0 0 1 2 14.988281 A 12.999999 12.999999 0 0 1 15 1.9882812 z " />
  <circle
     style="fill:#ffffff;stroke-width:1;stroke-linecap:round;stroke-linejoin:round;stroke-dasharray:1, 3"
     id="path957"
     cx="-15"
     cy="14.988248"
     r="12.999999"
     transform="scale(-1,1)" />
</svg>
